<svg width="200" height="200" viewBox="0 0 200 200" xmlns="http://www.w3.org/2000/svg">
  <!-- Cube outer edges -->
  <line x1="100" y1="35" x2="155" y2="65" stroke="#5A9FFF" stroke-width="3" stroke-linecap="round"/>
  <line x1="155" y1="65" x2="155" y2="125" stroke="#5A9FFF" stroke-width="3" stroke-linecap="round"/>
  <line x1="155" y1="125" x2="100" y2="155" stroke="#5A9FFF" stroke-width="3" stroke-linecap="round"/>
  <line x1="100" y1="155" x2="45" y2="125" stroke="#5A9FFF" stroke-width="3" stroke-linecap="round"/>
  <line x1="45" y1="125" x2="45" y2="65" stroke="#5A9FFF" stroke-width="3" stroke-linecap="round"/>
  <line x1="45" y1="65" x2="100" y2="35" stroke="#5A9FFF" stroke-width="3" stroke-linecap="round"/>
  <!-- Cube inner edges (dashed) -->
  <line x1="100" y1="35" x2="100" y2="95" stroke="#5A9FFF" stroke-width="1.5" stroke-dasharray="5 3" opacity="0.6"/>
  <line x1="155" y1="65" x2="100" y2="95" stroke="#5A9FFF" stroke-width="1.5" stroke-dasharray="5 3" opacity="0.6"/>
  <line x1="45" y1="65" x2="100" y2="95" stroke="#5A9FFF" stroke-width="1.5" stroke-dasharray="5 3" opacity="0.6"/>
  <line x1="100" y1="95" x2="100" y2="155" stroke="#5A9FFF" stroke-width="1.5" stroke-dasharray="5 3" opacity="0.6"/>
  <line x1="100" y1="95" x2="155" y2="125" stroke="#5A9FFF" stroke-width="1.5" stroke-dasharray="5 3" opacity="0.6"/>
  <line x1="100" y1="95" x2="45" y2="125" stroke="#5A9FFF" stroke-width="1.5" stroke-dasharray="5 3" opacity="0.6"/>
  <!-- Corner dots -->
  <circle cx="100" cy="35" r="4.5" fill="#5A9FFF"/>
  <circle cx="155" cy="65" r="4.5" fill="#5A9FFF"/>
  <circle cx="155" cy="125" r="4.5" fill="#5A9FFF"/>
  <circle cx="100" cy="155" r="4.5" fill="#5A9FFF"/>
  <circle cx="45" cy="65" r="4.5" fill="#5A9FFF"/>
  <circle cx="45" cy="125" r="4.5" fill="#5A9FFF"/>
  <!-- Lightning bolt -->
  <path d="M92,50 L116,50 L106,100 L120,100 L105,153 L81,153 L96,100 L82,100 Z" fill="#FFB830"/>
</svg>
