<svg fill="currentColor" fill-rule="evenodd" height="1em" style="flex:none;line-height:1" viewBox="0 0 24 24" width="1em" xmlns="http://www.w3.org/2000/svg"><title>OpenRouter</title><path d="M12 2a3.5 3.5 0 0 1 3.163 5.006l2.83 2.83a3.5 3.5 0 1 1-1.415 1.414l-2.83-2.83a3.502 3.502 0 0 1-3.496 0l-2.83 2.83a3.5 3.5 0 1 1-1.414-1.414l2.83-2.83A3.5 3.5 0 0 1 12 2Zm0 13a3.5 3.5 0 1 1 0 7 3.5 3.5 0 0 1 0-7Zm0-11a1.5 1.5 0 1 0 0 3 1.5 1.5 0 0 0 0-3ZM5.5 9a1.5 1.5 0 1 0 0 3 1.5 1.5 0 0 0 0-3Zm13 0a1.5 1.5 0 1 0 0 3 1.5 1.5 0 0 0 0-3Zm-6.5 6a1.5 1.5 0 1 0 0 3 1.5 1.5 0 0 0 0-3Z"/></svg>
